<?xml version='1.0' encoding='utf-8'?>
<svg xmlns="http://www.w3.org/2000/svg" width="1776" height="910" viewBox="0 0 1776 910">
  <defs>
    <marker id="arrowhead" markerWidth="10" markerHeight="7" refX="9" refY="3.5" orient="auto" markerUnits="strokeWidth">
      <polygon points="0 0, 10 3.5, 0 7" fill="#334155" />
    </marker>
  </defs>
  <rect x="0" y="0" width="1776" height="910" fill="#ffffff" />
  <rect x="40" y="40" width="1696" height="830" fill="#f8fafc" stroke="#94a3b8" stroke-width="2" />
  <rect x="40" y="40" width="1696" height="380" fill="#ffffff" stroke="#cbd5e1" stroke-width="1" />
  <rect x="40" y="40" width="160" height="380" fill="#e2e8f0" stroke="#cbd5e1" stroke-width="1" />
  <text x="58" y="68" font-family="monospace" font-size="16" font-weight="700" fill="#0f172a">Contract</text>
  <rect x="40" y="420" width="1696" height="270" fill="#ffffff" stroke="#cbd5e1" stroke-width="1" />
  <rect x="40" y="420" width="160" height="270" fill="#e2e8f0" stroke="#cbd5e1" stroke-width="1" />
  <text x="58" y="448" font-family="monospace" font-size="16" font-weight="700" fill="#0f172a">Taker</text>
  <rect x="40" y="690" width="1696" height="180" fill="#ffffff" stroke="#cbd5e1" stroke-width="1" />
  <rect x="40" y="690" width="160" height="180" fill="#e2e8f0" stroke="#cbd5e1" stroke-width="1" />
  <text x="58" y="718" font-family="monospace" font-size="16" font-weight="700" fill="#0f172a">Maker</text>
  <polyline points="236,208 288,208 288,215 340,215" fill="none" stroke="#334155" stroke-width="2" marker-end="url(#arrowhead)" />
  <polyline points="390,215 475,215 475,770 560,770" fill="none" stroke="#334155" stroke-width="2" marker-end="url(#arrowhead)" />
  <polyline points="680,770 730,770 730,105 780,105" fill="none" stroke="#334155" stroke-width="2" marker-end="url(#arrowhead)" />
  <polyline points="830,105 915,105 915,500 1000,500" fill="none" stroke="#334155" stroke-width="2" marker-end="url(#arrowhead)" />
  <polyline points="1120,500 1170,500 1170,120 1220,120" fill="none" stroke="#334155" stroke-width="2" marker-end="url(#arrowhead)" />
  <polyline points="1340,120 1440,120" fill="none" stroke="#334155" stroke-width="2" marker-end="url(#arrowhead)" />
  <polyline points="1560,120 1610,120 1610,98 1660,98" fill="none" stroke="#334155" stroke-width="2" marker-end="url(#arrowhead)" />
  <polyline points="830,105 915,105 915,208 1000,208" fill="none" stroke="#334155" stroke-width="2" marker-end="url(#arrowhead)" />
  <polyline points="1036,208 1220,208" fill="none" stroke="#334155" stroke-width="2" marker-end="url(#arrowhead)" />
  <polyline points="390,215 475,215 475,610 560,610" fill="none" stroke="#334155" stroke-width="2" marker-end="url(#arrowhead)" />
  <polyline points="680,610 730,610 730,215 780,215" fill="none" stroke="#334155" stroke-width="2" marker-end="url(#arrowhead)" />
  <polyline points="830,215 915,215 915,770 1000,770" fill="none" stroke="#334155" stroke-width="2" marker-end="url(#arrowhead)" />
  <polyline points="1120,770 1170,770 1170,230 1220,230" fill="none" stroke="#334155" stroke-width="2" marker-end="url(#arrowhead)" />
  <polyline points="1340,230 1440,230" fill="none" stroke="#334155" stroke-width="2" marker-end="url(#arrowhead)" />
  <polyline points="1560,230 1610,230 1610,208 1660,208" fill="none" stroke="#334155" stroke-width="2" marker-end="url(#arrowhead)" />
  <polyline points="830,215 915,215 915,318 1000,318" fill="none" stroke="#334155" stroke-width="2" marker-end="url(#arrowhead)" />
  <polyline points="1036,318 1220,318" fill="none" stroke="#334155" stroke-width="2" marker-end="url(#arrowhead)" />
  <polyline points="390,215 475,215 475,318 560,318" fill="none" stroke="#334155" stroke-width="2" marker-end="url(#arrowhead)" />
  <polyline points="596,318 780,318" fill="none" stroke="#334155" stroke-width="2" marker-end="url(#arrowhead)" />
  <g id="startEvent_1">
    <circle cx="218" cy="208" r="18" fill="#ffffff" stroke="#0f172a" stroke-width="2" />
    <text x="218" y="208" text-anchor="middle" font-family="monospace" font-size="12" fill="#0f172a">Contract start</text>
  </g>
  <g id="eventBasedGateway_2">
    <polygon points="365,190 390,215 365,240 340,215" fill="#f8fafc" stroke="#0f172a" stroke-width="2" />
    <text x="365" y="206" text-anchor="middle" font-family="monospace" font-size="12" fill="#0f172a">Await action before</text>
    <text x="365" y="224" text-anchor="middle" font-family="monospace" font-size="12" fill="#0f172a">2026-03-15T23:59:59Z</text>
  </g>
  <g id="receiveTask_3">
    <rect x="560" y="730" width="120" height="80" rx="12" ry="12" fill="#ffffff" stroke="#0f172a" stroke-width="2" />
    <text x="620" y="761" text-anchor="middle" font-family="monospace" font-size="12" fill="#0f172a">Receive deposit 125</text>
    <text x="620" y="779" text-anchor="middle" font-family="monospace" font-size="12" fill="#0f172a">SUI from Maker</text>
  </g>
  <g id="eventBasedGateway_4">
    <polygon points="805,80 830,105 805,130 780,105" fill="#f8fafc" stroke="#0f172a" stroke-width="2" />
    <text x="805" y="96" text-anchor="middle" font-family="monospace" font-size="12" fill="#0f172a">Await action before</text>
    <text x="805" y="114" text-anchor="middle" font-family="monospace" font-size="12" fill="#0f172a">2026-03-17T23:59:59Z</text>
  </g>
  <g id="receiveTask_5">
    <rect x="1000" y="460" width="120" height="80" rx="12" ry="12" fill="#ffffff" stroke="#0f172a" stroke-width="2" />
    <text x="1060" y="491" text-anchor="middle" font-family="monospace" font-size="12" fill="#0f172a">Receive deposit 380</text>
    <text x="1060" y="509" text-anchor="middle" font-family="monospace" font-size="12" fill="#0f172a">USDC from Taker</text>
  </g>
  <g id="serviceTask_6">
    <rect x="1220" y="80" width="120" height="80" rx="12" ry="12" fill="#ffffff" stroke="#0f172a" stroke-width="2" />
    <text x="1280" y="111" text-anchor="middle" font-family="monospace" font-size="12" fill="#0f172a">Pay 125 SUI from Maker</text>
    <text x="1280" y="129" text-anchor="middle" font-family="monospace" font-size="12" fill="#0f172a">to Taker</text>
  </g>
  <g id="serviceTask_7">
    <rect x="1440" y="80" width="120" height="80" rx="12" ry="12" fill="#ffffff" stroke="#0f172a" stroke-width="2" />
    <text x="1500" y="111" text-anchor="middle" font-family="monospace" font-size="12" fill="#0f172a">Pay 380 USDC from</text>
    <text x="1500" y="129" text-anchor="middle" font-family="monospace" font-size="12" fill="#0f172a">Taker to Maker</text>
  </g>
  <g id="endEvent_8">
    <circle cx="1678" cy="98" r="18" fill="#ffffff" stroke="#0f172a" stroke-width="2" />
    <text x="1678" y="98" text-anchor="middle" font-family="monospace" font-size="12" fill="#0f172a">Close</text>
  </g>
  <g id="intermediateCatchEvent_9">
    <circle cx="1018" cy="208" r="18" fill="#ffffff" stroke="#0f172a" stroke-width="2" />
    <circle cx="1018" cy="208" r="13" fill="none" stroke="#0f172a" stroke-width="1.5" />
    <text x="1018" y="199" text-anchor="middle" font-family="monospace" font-size="12" fill="#0f172a">Timeout at</text>
    <text x="1018" y="217" text-anchor="middle" font-family="monospace" font-size="12" fill="#0f172a">2026-03-17T23:59:59Z</text>
  </g>
  <g id="endEvent_10">
    <circle cx="1238" cy="208" r="18" fill="#ffffff" stroke="#0f172a" stroke-width="2" />
    <text x="1238" y="208" text-anchor="middle" font-family="monospace" font-size="12" fill="#0f172a">Close</text>
  </g>
  <g id="receiveTask_11">
    <rect x="560" y="570" width="120" height="80" rx="12" ry="12" fill="#ffffff" stroke="#0f172a" stroke-width="2" />
    <text x="620" y="601" text-anchor="middle" font-family="monospace" font-size="12" fill="#0f172a">Receive deposit 380</text>
    <text x="620" y="619" text-anchor="middle" font-family="monospace" font-size="12" fill="#0f172a">USDC from Taker</text>
  </g>
  <g id="eventBasedGateway_12">
    <polygon points="805,190 830,215 805,240 780,215" fill="#f8fafc" stroke="#0f172a" stroke-width="2" />
    <text x="805" y="206" text-anchor="middle" font-family="monospace" font-size="12" fill="#0f172a">Await action before</text>
    <text x="805" y="224" text-anchor="middle" font-family="monospace" font-size="12" fill="#0f172a">2026-03-17T23:59:59Z</text>
  </g>
  <g id="receiveTask_13">
    <rect x="1000" y="730" width="120" height="80" rx="12" ry="12" fill="#ffffff" stroke="#0f172a" stroke-width="2" />
    <text x="1060" y="761" text-anchor="middle" font-family="monospace" font-size="12" fill="#0f172a">Receive deposit 125</text>
    <text x="1060" y="779" text-anchor="middle" font-family="monospace" font-size="12" fill="#0f172a">SUI from Maker</text>
  </g>
  <g id="serviceTask_14">
    <rect x="1220" y="190" width="120" height="80" rx="12" ry="12" fill="#ffffff" stroke="#0f172a" stroke-width="2" />
    <text x="1280" y="221" text-anchor="middle" font-family="monospace" font-size="12" fill="#0f172a">Pay 125 SUI from Maker</text>
    <text x="1280" y="239" text-anchor="middle" font-family="monospace" font-size="12" fill="#0f172a">to Taker</text>
  </g>
  <g id="serviceTask_15">
    <rect x="1440" y="190" width="120" height="80" rx="12" ry="12" fill="#ffffff" stroke="#0f172a" stroke-width="2" />
    <text x="1500" y="221" text-anchor="middle" font-family="monospace" font-size="12" fill="#0f172a">Pay 380 USDC from</text>
    <text x="1500" y="239" text-anchor="middle" font-family="monospace" font-size="12" fill="#0f172a">Taker to Maker</text>
  </g>
  <g id="endEvent_16">
    <circle cx="1678" cy="208" r="18" fill="#ffffff" stroke="#0f172a" stroke-width="2" />
    <text x="1678" y="208" text-anchor="middle" font-family="monospace" font-size="12" fill="#0f172a">Close</text>
  </g>
  <g id="intermediateCatchEvent_17">
    <circle cx="1018" cy="318" r="18" fill="#ffffff" stroke="#0f172a" stroke-width="2" />
    <circle cx="1018" cy="318" r="13" fill="none" stroke="#0f172a" stroke-width="1.5" />
    <text x="1018" y="309" text-anchor="middle" font-family="monospace" font-size="12" fill="#0f172a">Timeout at</text>
    <text x="1018" y="327" text-anchor="middle" font-family="monospace" font-size="12" fill="#0f172a">2026-03-17T23:59:59Z</text>
  </g>
  <g id="endEvent_18">
    <circle cx="1238" cy="318" r="18" fill="#ffffff" stroke="#0f172a" stroke-width="2" />
    <text x="1238" y="318" text-anchor="middle" font-family="monospace" font-size="12" fill="#0f172a">Close</text>
  </g>
  <g id="intermediateCatchEvent_19">
    <circle cx="578" cy="318" r="18" fill="#ffffff" stroke="#0f172a" stroke-width="2" />
    <circle cx="578" cy="318" r="13" fill="none" stroke="#0f172a" stroke-width="1.5" />
    <text x="578" y="309" text-anchor="middle" font-family="monospace" font-size="12" fill="#0f172a">Timeout at</text>
    <text x="578" y="327" text-anchor="middle" font-family="monospace" font-size="12" fill="#0f172a">2026-03-15T23:59:59Z</text>
  </g>
  <g id="endEvent_20">
    <circle cx="798" cy="318" r="18" fill="#ffffff" stroke="#0f172a" stroke-width="2" />
    <text x="798" y="318" text-anchor="middle" font-family="monospace" font-size="12" fill="#0f172a">Close</text>
  </g>
</svg>