<?xml version='1.0' encoding='utf-8'?>
<svg xmlns="http://www.w3.org/2000/svg" width="2039" height="1126" viewBox="0 0 2039 1126">
  <defs>
    <marker id="arrowhead" markerWidth="10" markerHeight="7" refX="9" refY="3.5" orient="auto" markerUnits="strokeWidth">
      <polygon points="0 0, 10 3.5, 0 7" fill="#334155" />
    </marker>
  </defs>
  <rect x="0" y="0" width="2039" height="1126" fill="#ffffff" />
  <rect x="40" y="40" width="1959" height="1046" fill="#f8fafc" stroke="#94a3b8" stroke-width="2" />
  <rect x="40" y="40" width="1959" height="522" fill="#ffffff" stroke="#cbd5e1" stroke-width="1" />
  <rect x="40" y="40" width="160" height="522" fill="#e2e8f0" stroke="#cbd5e1" stroke-width="1" />
  <text x="58" y="74" font-family="monospace" font-size="18" font-weight="700" fill="#0f172a">Contract</text>
  <rect x="40" y="562" width="1959" height="332" fill="#ffffff" stroke="#cbd5e1" stroke-width="1" />
  <rect x="40" y="562" width="160" height="332" fill="#e2e8f0" stroke="#cbd5e1" stroke-width="1" />
  <text x="58" y="596" font-family="monospace" font-size="18" font-weight="700" fill="#0f172a">Taker</text>
  <rect x="40" y="894" width="1959" height="192" fill="#ffffff" stroke="#cbd5e1" stroke-width="1" />
  <rect x="40" y="894" width="160" height="192" fill="#e2e8f0" stroke="#cbd5e1" stroke-width="1" />
  <text x="58" y="928" font-family="monospace" font-size="18" font-weight="700" fill="#0f172a">Maker</text>
  <polyline points="244,250 292,250 292,260 340,260" fill="none" stroke="#334155" stroke-width="2" marker-end="url(#arrowhead)" />
  <polyline points="404,260 502,260 502,990 600,990" fill="none" stroke="#334155" stroke-width="2" marker-end="url(#arrowhead)" />
  <polyline points="780,990 820,990 820,120 860,120" fill="none" stroke="#334155" stroke-width="2" marker-end="url(#arrowhead)" />
  <polyline points="924,120 1022,120 1022,658 1120,658" fill="none" stroke="#334155" stroke-width="2" marker-end="url(#arrowhead)" />
  <polyline points="1300,658 1340,658 1340,136 1380,136" fill="none" stroke="#334155" stroke-width="2" marker-end="url(#arrowhead)" />
  <polyline points="1560,136 1640,136" fill="none" stroke="#334155" stroke-width="2" marker-end="url(#arrowhead)" />
  <polyline points="1820,136 1860,136 1860,110 1900,110" fill="none" stroke="#334155" stroke-width="2" marker-end="url(#arrowhead)" />
  <polyline points="924,120 1022,120 1022,250 1120,250" fill="none" stroke="#334155" stroke-width="2" marker-end="url(#arrowhead)" />
  <polyline points="1164,250 1380,250" fill="none" stroke="#334155" stroke-width="2" marker-end="url(#arrowhead)" />
  <polyline points="404,260 502,260 502,798 600,798" fill="none" stroke="#334155" stroke-width="2" marker-end="url(#arrowhead)" />
  <polyline points="780,798 820,798 820,260 860,260" fill="none" stroke="#334155" stroke-width="2" marker-end="url(#arrowhead)" />
  <polyline points="924,260 1022,260 1022,990 1120,990" fill="none" stroke="#334155" stroke-width="2" marker-end="url(#arrowhead)" />
  <polyline points="1300,990 1340,990 1340,276 1380,276" fill="none" stroke="#334155" stroke-width="2" marker-end="url(#arrowhead)" />
  <polyline points="1560,276 1640,276" fill="none" stroke="#334155" stroke-width="2" marker-end="url(#arrowhead)" />
  <polyline points="1820,276 1860,276 1860,250 1900,250" fill="none" stroke="#334155" stroke-width="2" marker-end="url(#arrowhead)" />
  <polyline points="924,260 1022,260 1022,390 1120,390" fill="none" stroke="#334155" stroke-width="2" marker-end="url(#arrowhead)" />
  <polyline points="1164,390 1380,390" fill="none" stroke="#334155" stroke-width="2" marker-end="url(#arrowhead)" />
  <polyline points="404,260 502,260 502,390 600,390" fill="none" stroke="#334155" stroke-width="2" marker-end="url(#arrowhead)" />
  <polyline points="644,390 860,390" fill="none" stroke="#334155" stroke-width="2" marker-end="url(#arrowhead)" />
  <g id="startEvent_1">
    <circle cx="222" cy="250" r="22" fill="#ffffff" stroke="#0f172a" stroke-width="2" />
    <text x="222" y="294" text-anchor="middle" font-family="monospace" font-size="14" font-weight="600" fill="#0f172a">Contract start</text>
  </g>
  <g id="eventBasedGateway_2">
    <polygon points="372,228 404,260 372,292 340,260" fill="#f8fafc" stroke="#0f172a" stroke-width="2" />
    <text x="372" y="314" text-anchor="middle" font-family="monospace" font-size="14" font-weight="600" fill="#0f172a">Await action</text>
    <text x="372" y="334" text-anchor="middle" font-family="monospace" font-size="14" font-weight="600" fill="#0f172a">before</text>
    <text x="372" y="354" text-anchor="middle" font-family="monospace" font-size="14" font-weight="600" fill="#0f172a">2026-03-15T23:59:59Z</text>
  </g>
  <g id="receiveTask_3">
    <rect x="600" y="942" width="180" height="96" rx="12" ry="12" fill="#ffffff" stroke="#0f172a" stroke-width="2" />
    <text x="690" y="980" text-anchor="middle" font-family="monospace" font-size="14" font-weight="600" fill="#0f172a">Receive deposit 125 SUI</text>
    <text x="690" y="1000" text-anchor="middle" font-family="monospace" font-size="14" font-weight="600" fill="#0f172a">from Maker</text>
  </g>
  <g id="eventBasedGateway_4">
    <polygon points="892,88 924,120 892,152 860,120" fill="#f8fafc" stroke="#0f172a" stroke-width="2" />
    <text x="892" y="174" text-anchor="middle" font-family="monospace" font-size="14" font-weight="600" fill="#0f172a">Await action</text>
    <text x="892" y="194" text-anchor="middle" font-family="monospace" font-size="14" font-weight="600" fill="#0f172a">before</text>
    <text x="892" y="214" text-anchor="middle" font-family="monospace" font-size="14" font-weight="600" fill="#0f172a">2026-03-17T23:59:59Z</text>
  </g>
  <g id="receiveTask_5">
    <rect x="1120" y="610" width="180" height="96" rx="12" ry="12" fill="#ffffff" stroke="#0f172a" stroke-width="2" />
    <text x="1210" y="648" text-anchor="middle" font-family="monospace" font-size="14" font-weight="600" fill="#0f172a">Receive deposit 380 USDC</text>
    <text x="1210" y="668" text-anchor="middle" font-family="monospace" font-size="14" font-weight="600" fill="#0f172a">from Taker</text>
  </g>
  <g id="serviceTask_6">
    <rect x="1380" y="88" width="180" height="96" rx="12" ry="12" fill="#ffffff" stroke="#0f172a" stroke-width="2" />
    <text x="1470" y="126" text-anchor="middle" font-family="monospace" font-size="14" font-weight="600" fill="#0f172a">Pay 125 SUI from Maker</text>
    <text x="1470" y="146" text-anchor="middle" font-family="monospace" font-size="14" font-weight="600" fill="#0f172a">to Taker</text>
  </g>
  <g id="serviceTask_7">
    <rect x="1640" y="88" width="180" height="96" rx="12" ry="12" fill="#ffffff" stroke="#0f172a" stroke-width="2" />
    <text x="1730" y="126" text-anchor="middle" font-family="monospace" font-size="14" font-weight="600" fill="#0f172a">Pay 380 USDC from Taker</text>
    <text x="1730" y="146" text-anchor="middle" font-family="monospace" font-size="14" font-weight="600" fill="#0f172a">to Maker</text>
  </g>
  <g id="endEvent_8">
    <circle cx="1922" cy="110" r="22" fill="#ffffff" stroke="#0f172a" stroke-width="2" />
    <text x="1922" y="154" text-anchor="middle" font-family="monospace" font-size="14" font-weight="600" fill="#0f172a">Close</text>
  </g>
  <g id="intermediateCatchEvent_9">
    <circle cx="1142" cy="250" r="22" fill="#ffffff" stroke="#0f172a" stroke-width="2" />
    <circle cx="1142" cy="250" r="16" fill="none" stroke="#0f172a" stroke-width="1.5" />
    <text x="1142" y="294" text-anchor="middle" font-family="monospace" font-size="14" font-weight="600" fill="#0f172a">Timeout at</text>
    <text x="1142" y="314" text-anchor="middle" font-family="monospace" font-size="14" font-weight="600" fill="#0f172a">2026-03-17T23:59:59Z</text>
  </g>
  <g id="endEvent_10">
    <circle cx="1402" cy="250" r="22" fill="#ffffff" stroke="#0f172a" stroke-width="2" />
    <text x="1402" y="294" text-anchor="middle" font-family="monospace" font-size="14" font-weight="600" fill="#0f172a">Close</text>
  </g>
  <g id="receiveTask_11">
    <rect x="600" y="750" width="180" height="96" rx="12" ry="12" fill="#ffffff" stroke="#0f172a" stroke-width="2" />
    <text x="690" y="788" text-anchor="middle" font-family="monospace" font-size="14" font-weight="600" fill="#0f172a">Receive deposit 380 USDC</text>
    <text x="690" y="808" text-anchor="middle" font-family="monospace" font-size="14" font-weight="600" fill="#0f172a">from Taker</text>
  </g>
  <g id="eventBasedGateway_12">
    <polygon points="892,228 924,260 892,292 860,260" fill="#f8fafc" stroke="#0f172a" stroke-width="2" />
    <text x="892" y="314" text-anchor="middle" font-family="monospace" font-size="14" font-weight="600" fill="#0f172a">Await action</text>
    <text x="892" y="334" text-anchor="middle" font-family="monospace" font-size="14" font-weight="600" fill="#0f172a">before</text>
    <text x="892" y="354" text-anchor="middle" font-family="monospace" font-size="14" font-weight="600" fill="#0f172a">2026-03-17T23:59:59Z</text>
  </g>
  <g id="receiveTask_13">
    <rect x="1120" y="942" width="180" height="96" rx="12" ry="12" fill="#ffffff" stroke="#0f172a" stroke-width="2" />
    <text x="1210" y="980" text-anchor="middle" font-family="monospace" font-size="14" font-weight="600" fill="#0f172a">Receive deposit 125 SUI</text>
    <text x="1210" y="1000" text-anchor="middle" font-family="monospace" font-size="14" font-weight="600" fill="#0f172a">from Maker</text>
  </g>
  <g id="serviceTask_14">
    <rect x="1380" y="228" width="180" height="96" rx="12" ry="12" fill="#ffffff" stroke="#0f172a" stroke-width="2" />
    <text x="1470" y="266" text-anchor="middle" font-family="monospace" font-size="14" font-weight="600" fill="#0f172a">Pay 125 SUI from Maker</text>
    <text x="1470" y="286" text-anchor="middle" font-family="monospace" font-size="14" font-weight="600" fill="#0f172a">to Taker</text>
  </g>
  <g id="serviceTask_15">
    <rect x="1640" y="228" width="180" height="96" rx="12" ry="12" fill="#ffffff" stroke="#0f172a" stroke-width="2" />
    <text x="1730" y="266" text-anchor="middle" font-family="monospace" font-size="14" font-weight="600" fill="#0f172a">Pay 380 USDC from Taker</text>
    <text x="1730" y="286" text-anchor="middle" font-family="monospace" font-size="14" font-weight="600" fill="#0f172a">to Maker</text>
  </g>
  <g id="endEvent_16">
    <circle cx="1922" cy="250" r="22" fill="#ffffff" stroke="#0f172a" stroke-width="2" />
    <text x="1922" y="294" text-anchor="middle" font-family="monospace" font-size="14" font-weight="600" fill="#0f172a">Close</text>
  </g>
  <g id="intermediateCatchEvent_17">
    <circle cx="1142" cy="390" r="22" fill="#ffffff" stroke="#0f172a" stroke-width="2" />
    <circle cx="1142" cy="390" r="16" fill="none" stroke="#0f172a" stroke-width="1.5" />
    <text x="1142" y="434" text-anchor="middle" font-family="monospace" font-size="14" font-weight="600" fill="#0f172a">Timeout at</text>
    <text x="1142" y="454" text-anchor="middle" font-family="monospace" font-size="14" font-weight="600" fill="#0f172a">2026-03-17T23:59:59Z</text>
  </g>
  <g id="endEvent_18">
    <circle cx="1402" cy="390" r="22" fill="#ffffff" stroke="#0f172a" stroke-width="2" />
    <text x="1402" y="434" text-anchor="middle" font-family="monospace" font-size="14" font-weight="600" fill="#0f172a">Close</text>
  </g>
  <g id="intermediateCatchEvent_19">
    <circle cx="622" cy="390" r="22" fill="#ffffff" stroke="#0f172a" stroke-width="2" />
    <circle cx="622" cy="390" r="16" fill="none" stroke="#0f172a" stroke-width="1.5" />
    <text x="622" y="434" text-anchor="middle" font-family="monospace" font-size="14" font-weight="600" fill="#0f172a">Timeout at</text>
    <text x="622" y="454" text-anchor="middle" font-family="monospace" font-size="14" font-weight="600" fill="#0f172a">2026-03-15T23:59:59Z</text>
  </g>
  <g id="endEvent_20">
    <circle cx="882" cy="390" r="22" fill="#ffffff" stroke="#0f172a" stroke-width="2" />
    <text x="882" y="434" text-anchor="middle" font-family="monospace" font-size="14" font-weight="600" fill="#0f172a">Close</text>
  </g>
</svg>